<mxfile host="app.diagrams.net" modified="2024-04-24T04:25:47.857Z" agent="Mozilla/5.0 (Windows NT 10.0; Win64; x64) AppleWebKit/537.36 (KHTML, like Gecko) Chrome/124.0.0.0 Safari/537.36" etag="KIjNxDtRfCUxr01ZuTCD" version="24.2.8" type="github">
  <diagram id="R2lEEEUBdFMjLlhIrx00" name="Page-1">
    <mxGraphModel dx="2166" dy="3464" grid="1" gridSize="10" guides="1" tooltips="1" connect="1" arrows="1" fold="1" page="1" pageScale="1" pageWidth="850" pageHeight="1100" math="0" shadow="0" extFonts="Permanent Marker^https://fonts.googleapis.com/css?family=Permanent+Marker">
      <root>
        <mxCell id="0" />
        <mxCell id="1" parent="0" />
        <mxCell id="BkbEZWv4PE-Ta2i0Lm6m-11" style="edgeStyle=orthogonalEdgeStyle;curved=1;rounded=0;orthogonalLoop=1;jettySize=auto;html=1;entryX=0;entryY=0.5;entryDx=0;entryDy=0;strokeColor=default;strokeWidth=3;align=center;verticalAlign=middle;fontFamily=Helvetica;fontSize=11;fontColor=default;labelBackgroundColor=default;endArrow=classic;" edge="1" parent="1" source="BkbEZWv4PE-Ta2i0Lm6m-1" target="BkbEZWv4PE-Ta2i0Lm6m-5">
          <mxGeometry relative="1" as="geometry" />
        </mxCell>
        <mxCell id="BkbEZWv4PE-Ta2i0Lm6m-1" value="&lt;b&gt;ORDERS TABLE&lt;/b&gt;" style="ellipse;whiteSpace=wrap;html=1;fontSize=20;labelBackgroundColor=none;fillColor=#FF9999;strokeColor=#b85450;strokeWidth=10;" vertex="1" parent="1">
          <mxGeometry x="670" y="330" width="220" height="140" as="geometry" />
        </mxCell>
        <mxCell id="BkbEZWv4PE-Ta2i0Lm6m-15" style="edgeStyle=orthogonalEdgeStyle;curved=1;rounded=0;orthogonalLoop=1;jettySize=auto;html=1;entryX=1;entryY=1;entryDx=0;entryDy=0;strokeColor=default;strokeWidth=3;align=center;verticalAlign=middle;fontFamily=Helvetica;fontSize=11;fontColor=default;labelBackgroundColor=default;endArrow=classic;" edge="1" parent="1" source="BkbEZWv4PE-Ta2i0Lm6m-2" target="BkbEZWv4PE-Ta2i0Lm6m-4">
          <mxGeometry relative="1" as="geometry" />
        </mxCell>
        <mxCell id="BkbEZWv4PE-Ta2i0Lm6m-2" value="&lt;b&gt;SALES UNIT&lt;/b&gt;" style="ellipse;whiteSpace=wrap;html=1;fontSize=20;labelBackgroundColor=none;fillColor=#FF9999;strokeColor=#b85450;strokeWidth=10;" vertex="1" parent="1">
          <mxGeometry x="1075" y="920" width="220" height="140" as="geometry" />
        </mxCell>
        <mxCell id="BkbEZWv4PE-Ta2i0Lm6m-13" style="edgeStyle=orthogonalEdgeStyle;curved=1;rounded=0;orthogonalLoop=1;jettySize=auto;html=1;entryX=0;entryY=0.5;entryDx=0;entryDy=0;strokeColor=default;strokeWidth=3;align=center;verticalAlign=middle;fontFamily=Helvetica;fontSize=11;fontColor=default;labelBackgroundColor=default;endArrow=classic;" edge="1" parent="1" source="BkbEZWv4PE-Ta2i0Lm6m-3" target="BkbEZWv4PE-Ta2i0Lm6m-4">
          <mxGeometry relative="1" as="geometry" />
        </mxCell>
        <mxCell id="BkbEZWv4PE-Ta2i0Lm6m-3" value="&lt;b&gt;PRODUCT TABLE&lt;/b&gt;" style="ellipse;whiteSpace=wrap;html=1;fontSize=20;labelBackgroundColor=none;fillColor=#FF9999;strokeColor=#b85450;strokeWidth=10;" vertex="1" parent="1">
          <mxGeometry x="280" y="730" width="220" height="140" as="geometry" />
        </mxCell>
        <mxCell id="BkbEZWv4PE-Ta2i0Lm6m-12" style="edgeStyle=orthogonalEdgeStyle;curved=1;rounded=0;orthogonalLoop=1;jettySize=auto;html=1;entryX=0.5;entryY=1;entryDx=0;entryDy=0;strokeColor=default;strokeWidth=3;align=center;verticalAlign=middle;fontFamily=Helvetica;fontSize=11;fontColor=default;labelBackgroundColor=default;endArrow=classic;" edge="1" parent="1" source="BkbEZWv4PE-Ta2i0Lm6m-4" target="BkbEZWv4PE-Ta2i0Lm6m-5">
          <mxGeometry relative="1" as="geometry" />
        </mxCell>
        <mxCell id="BkbEZWv4PE-Ta2i0Lm6m-4" value="&lt;b&gt;MENU ITEMS&lt;/b&gt;" style="ellipse;whiteSpace=wrap;html=1;fontSize=20;labelBackgroundColor=none;fillColor=#FF9999;strokeColor=#b85450;strokeWidth=10;" vertex="1" parent="1">
          <mxGeometry x="660" y="730" width="220" height="140" as="geometry" />
        </mxCell>
        <mxCell id="BkbEZWv4PE-Ta2i0Lm6m-5" value="&lt;b&gt;ORDER ITEM&lt;/b&gt;" style="ellipse;whiteSpace=wrap;html=1;fontSize=20;labelBackgroundColor=none;fillColor=#FF9999;strokeColor=#b85450;strokeWidth=10;" vertex="1" parent="1">
          <mxGeometry x="1100" y="330" width="220" height="140" as="geometry" />
        </mxCell>
        <mxCell id="BkbEZWv4PE-Ta2i0Lm6m-8" style="edgeStyle=orthogonalEdgeStyle;rounded=0;orthogonalLoop=1;jettySize=auto;html=1;entryX=0;entryY=0.5;entryDx=0;entryDy=0;curved=1;strokeWidth=3;" edge="1" parent="1" source="BkbEZWv4PE-Ta2i0Lm6m-6" target="BkbEZWv4PE-Ta2i0Lm6m-1">
          <mxGeometry relative="1" as="geometry" />
        </mxCell>
        <mxCell id="BkbEZWv4PE-Ta2i0Lm6m-6" value="&lt;b&gt;CUSTOMERS&lt;/b&gt;" style="ellipse;whiteSpace=wrap;html=1;fontSize=20;labelBackgroundColor=none;fillColor=#FF9999;strokeColor=#b85450;strokeWidth=10;" vertex="1" parent="1">
          <mxGeometry x="10" y="330" width="220" height="140" as="geometry" />
        </mxCell>
        <mxCell id="BkbEZWv4PE-Ta2i0Lm6m-14" style="edgeStyle=orthogonalEdgeStyle;curved=1;rounded=0;orthogonalLoop=1;jettySize=auto;html=1;entryX=0;entryY=0.5;entryDx=0;entryDy=0;strokeColor=default;strokeWidth=3;align=center;verticalAlign=middle;fontFamily=Helvetica;fontSize=11;fontColor=default;labelBackgroundColor=default;endArrow=classic;" edge="1" parent="1" source="BkbEZWv4PE-Ta2i0Lm6m-7" target="BkbEZWv4PE-Ta2i0Lm6m-3">
          <mxGeometry relative="1" as="geometry" />
        </mxCell>
        <mxCell id="BkbEZWv4PE-Ta2i0Lm6m-7" value="&lt;b&gt;CATEGORIES&lt;/b&gt;" style="ellipse;whiteSpace=wrap;html=1;fontSize=20;labelBackgroundColor=none;fillColor=#FF9999;strokeColor=#b85450;strokeWidth=10;" vertex="1" parent="1">
          <mxGeometry x="-530" y="320" width="220" height="140" as="geometry" />
        </mxCell>
        <mxCell id="BkbEZWv4PE-Ta2i0Lm6m-19" style="edgeStyle=orthogonalEdgeStyle;curved=1;rounded=0;orthogonalLoop=1;jettySize=auto;html=1;entryX=0.5;entryY=0;entryDx=0;entryDy=0;strokeColor=default;strokeWidth=3;align=center;verticalAlign=middle;fontFamily=Helvetica;fontSize=11;fontColor=default;labelBackgroundColor=default;endArrow=classic;" edge="1" parent="1" source="BkbEZWv4PE-Ta2i0Lm6m-16" target="BkbEZWv4PE-Ta2i0Lm6m-7">
          <mxGeometry relative="1" as="geometry" />
        </mxCell>
        <mxCell id="BkbEZWv4PE-Ta2i0Lm6m-16" value="&lt;font style=&quot;font-size: 16px;&quot;&gt;ID&lt;/font&gt;" style="ellipse;whiteSpace=wrap;html=1;fontFamily=Helvetica;fontSize=13;labelBackgroundColor=none;fillColor=#dae8fc;strokeColor=#6c8ebf;strokeWidth=2;" vertex="1" parent="1">
          <mxGeometry x="-670" y="220" width="120" height="80" as="geometry" />
        </mxCell>
        <mxCell id="BkbEZWv4PE-Ta2i0Lm6m-20" style="edgeStyle=orthogonalEdgeStyle;curved=1;rounded=0;orthogonalLoop=1;jettySize=auto;html=1;entryX=0;entryY=0.5;entryDx=0;entryDy=0;strokeColor=default;strokeWidth=3;align=center;verticalAlign=middle;fontFamily=Helvetica;fontSize=11;fontColor=default;labelBackgroundColor=default;endArrow=classic;" edge="1" parent="1" source="BkbEZWv4PE-Ta2i0Lm6m-17" target="BkbEZWv4PE-Ta2i0Lm6m-7">
          <mxGeometry relative="1" as="geometry" />
        </mxCell>
        <mxCell id="BkbEZWv4PE-Ta2i0Lm6m-17" value="&lt;font style=&quot;font-size: 16px;&quot;&gt;product types&lt;/font&gt;" style="ellipse;whiteSpace=wrap;html=1;fontFamily=Helvetica;fontSize=13;labelBackgroundColor=none;fillColor=#dae8fc;strokeColor=#6c8ebf;strokeWidth=2;" vertex="1" parent="1">
          <mxGeometry x="-740" y="310" width="120" height="80" as="geometry" />
        </mxCell>
        <mxCell id="BkbEZWv4PE-Ta2i0Lm6m-44" style="edgeStyle=orthogonalEdgeStyle;curved=1;rounded=0;orthogonalLoop=1;jettySize=auto;html=1;entryX=0;entryY=0;entryDx=0;entryDy=0;strokeColor=default;strokeWidth=3;align=center;verticalAlign=middle;fontFamily=Helvetica;fontSize=11;fontColor=default;labelBackgroundColor=default;endArrow=classic;exitX=0;exitY=0.5;exitDx=0;exitDy=0;" edge="1" parent="1" source="BkbEZWv4PE-Ta2i0Lm6m-21" target="BkbEZWv4PE-Ta2i0Lm6m-6">
          <mxGeometry relative="1" as="geometry" />
        </mxCell>
        <mxCell id="BkbEZWv4PE-Ta2i0Lm6m-21" value="&lt;font style=&quot;font-size: 16px;&quot;&gt;city&lt;/font&gt;" style="ellipse;whiteSpace=wrap;html=1;fontFamily=Helvetica;fontSize=13;labelBackgroundColor=none;fillColor=#dae8fc;strokeColor=#6c8ebf;strokeWidth=2;" vertex="1" parent="1">
          <mxGeometry x="140" y="110" width="120" height="80" as="geometry" />
        </mxCell>
        <mxCell id="BkbEZWv4PE-Ta2i0Lm6m-41" style="edgeStyle=orthogonalEdgeStyle;curved=1;rounded=0;orthogonalLoop=1;jettySize=auto;html=1;strokeColor=default;strokeWidth=3;align=center;verticalAlign=middle;fontFamily=Helvetica;fontSize=11;fontColor=default;labelBackgroundColor=default;endArrow=classic;entryX=0;entryY=0;entryDx=0;entryDy=0;exitX=0;exitY=0.5;exitDx=0;exitDy=0;" edge="1" parent="1" source="BkbEZWv4PE-Ta2i0Lm6m-22" target="BkbEZWv4PE-Ta2i0Lm6m-6">
          <mxGeometry relative="1" as="geometry">
            <mxPoint x="30" y="340" as="targetPoint" />
          </mxGeometry>
        </mxCell>
        <mxCell id="BkbEZWv4PE-Ta2i0Lm6m-22" value="&lt;font style=&quot;font-size: 16px;&quot;&gt;other notes&lt;/font&gt;" style="ellipse;whiteSpace=wrap;html=1;fontFamily=Helvetica;fontSize=13;labelBackgroundColor=none;fillColor=#dae8fc;strokeColor=#6c8ebf;strokeWidth=2;" vertex="1" parent="1">
          <mxGeometry x="140" y="220" width="120" height="80" as="geometry" />
        </mxCell>
        <mxCell id="BkbEZWv4PE-Ta2i0Lm6m-42" style="edgeStyle=orthogonalEdgeStyle;curved=1;rounded=0;orthogonalLoop=1;jettySize=auto;html=1;entryX=0;entryY=0;entryDx=0;entryDy=0;strokeColor=default;strokeWidth=3;align=center;verticalAlign=middle;fontFamily=Helvetica;fontSize=11;fontColor=default;labelBackgroundColor=default;endArrow=classic;exitX=0;exitY=0.5;exitDx=0;exitDy=0;" edge="1" parent="1" source="BkbEZWv4PE-Ta2i0Lm6m-23" target="BkbEZWv4PE-Ta2i0Lm6m-6">
          <mxGeometry relative="1" as="geometry" />
        </mxCell>
        <mxCell id="BkbEZWv4PE-Ta2i0Lm6m-23" value="&lt;font style=&quot;font-size: 16px;&quot;&gt;state&lt;/font&gt;" style="ellipse;whiteSpace=wrap;html=1;fontFamily=Helvetica;fontSize=13;labelBackgroundColor=none;fillColor=#dae8fc;strokeColor=#6c8ebf;strokeWidth=2;" vertex="1" parent="1">
          <mxGeometry x="140" y="-120" width="120" height="80" as="geometry" />
        </mxCell>
        <mxCell id="BkbEZWv4PE-Ta2i0Lm6m-40" style="edgeStyle=orthogonalEdgeStyle;curved=1;rounded=0;orthogonalLoop=1;jettySize=auto;html=1;entryX=0;entryY=0;entryDx=0;entryDy=0;strokeColor=default;strokeWidth=3;align=center;verticalAlign=middle;fontFamily=Helvetica;fontSize=11;fontColor=default;labelBackgroundColor=default;endArrow=classic;exitX=0;exitY=0.5;exitDx=0;exitDy=0;" edge="1" parent="1" source="BkbEZWv4PE-Ta2i0Lm6m-24" target="BkbEZWv4PE-Ta2i0Lm6m-6">
          <mxGeometry relative="1" as="geometry" />
        </mxCell>
        <mxCell id="BkbEZWv4PE-Ta2i0Lm6m-24" value="&lt;font style=&quot;font-size: 16px;&quot;&gt;last name&lt;/font&gt;" style="ellipse;whiteSpace=wrap;html=1;fontFamily=Helvetica;fontSize=13;labelBackgroundColor=none;fillColor=#dae8fc;strokeColor=#6c8ebf;strokeWidth=2;" vertex="1" parent="1">
          <mxGeometry x="140" y="-240" width="120" height="80" as="geometry" />
        </mxCell>
        <mxCell id="BkbEZWv4PE-Ta2i0Lm6m-45" style="edgeStyle=orthogonalEdgeStyle;curved=1;rounded=0;orthogonalLoop=1;jettySize=auto;html=1;entryX=0;entryY=0;entryDx=0;entryDy=0;strokeColor=default;strokeWidth=3;align=center;verticalAlign=middle;fontFamily=Helvetica;fontSize=11;fontColor=default;labelBackgroundColor=default;endArrow=classic;exitX=0;exitY=0.5;exitDx=0;exitDy=0;" edge="1" parent="1" source="BkbEZWv4PE-Ta2i0Lm6m-25" target="BkbEZWv4PE-Ta2i0Lm6m-6">
          <mxGeometry relative="1" as="geometry" />
        </mxCell>
        <mxCell id="BkbEZWv4PE-Ta2i0Lm6m-25" value="&lt;font style=&quot;font-size: 16px;&quot;&gt;email&lt;/font&gt;" style="ellipse;whiteSpace=wrap;html=1;fontFamily=Helvetica;fontSize=13;labelBackgroundColor=none;fillColor=#dae8fc;strokeColor=#6c8ebf;strokeWidth=2;" vertex="1" parent="1">
          <mxGeometry x="140" y="-10" width="120" height="80" as="geometry" />
        </mxCell>
        <mxCell id="BkbEZWv4PE-Ta2i0Lm6m-33" style="edgeStyle=orthogonalEdgeStyle;curved=1;rounded=0;orthogonalLoop=1;jettySize=auto;html=1;entryX=0.5;entryY=1;entryDx=0;entryDy=0;strokeColor=default;strokeWidth=3;align=center;verticalAlign=middle;fontFamily=Helvetica;fontSize=11;fontColor=default;labelBackgroundColor=default;endArrow=classic;" edge="1" parent="1" source="BkbEZWv4PE-Ta2i0Lm6m-26" target="BkbEZWv4PE-Ta2i0Lm6m-6">
          <mxGeometry relative="1" as="geometry" />
        </mxCell>
        <mxCell id="BkbEZWv4PE-Ta2i0Lm6m-26" value="&lt;font style=&quot;font-size: 16px;&quot;&gt;ID&lt;/font&gt;" style="ellipse;whiteSpace=wrap;html=1;fontFamily=Helvetica;fontSize=13;labelBackgroundColor=none;fillColor=#dae8fc;strokeColor=#6c8ebf;strokeWidth=2;" vertex="1" parent="1">
          <mxGeometry x="60" y="510" width="120" height="80" as="geometry" />
        </mxCell>
        <mxCell id="BkbEZWv4PE-Ta2i0Lm6m-39" style="edgeStyle=orthogonalEdgeStyle;curved=1;rounded=0;orthogonalLoop=1;jettySize=auto;html=1;entryX=0;entryY=0;entryDx=0;entryDy=0;strokeColor=default;strokeWidth=3;align=center;verticalAlign=middle;fontFamily=Helvetica;fontSize=11;fontColor=default;labelBackgroundColor=default;endArrow=classic;" edge="1" parent="1" source="BkbEZWv4PE-Ta2i0Lm6m-27" target="BkbEZWv4PE-Ta2i0Lm6m-6">
          <mxGeometry relative="1" as="geometry" />
        </mxCell>
        <mxCell id="BkbEZWv4PE-Ta2i0Lm6m-27" value="&lt;font style=&quot;font-size: 16px;&quot;&gt;street address&lt;/font&gt;" style="ellipse;whiteSpace=wrap;html=1;fontFamily=Helvetica;fontSize=13;labelBackgroundColor=none;fillColor=#dae8fc;strokeColor=#6c8ebf;strokeWidth=2;" vertex="1" parent="1">
          <mxGeometry x="-160" y="-170" width="120" height="80" as="geometry" />
        </mxCell>
        <mxCell id="BkbEZWv4PE-Ta2i0Lm6m-38" style="edgeStyle=orthogonalEdgeStyle;curved=1;rounded=0;orthogonalLoop=1;jettySize=auto;html=1;entryX=0;entryY=0;entryDx=0;entryDy=0;strokeColor=default;strokeWidth=3;align=center;verticalAlign=middle;fontFamily=Helvetica;fontSize=11;fontColor=default;labelBackgroundColor=default;endArrow=classic;" edge="1" parent="1" source="BkbEZWv4PE-Ta2i0Lm6m-28" target="BkbEZWv4PE-Ta2i0Lm6m-6">
          <mxGeometry relative="1" as="geometry" />
        </mxCell>
        <mxCell id="BkbEZWv4PE-Ta2i0Lm6m-28" value="&lt;font style=&quot;font-size: 16px;&quot;&gt;zip code&lt;/font&gt;" style="ellipse;whiteSpace=wrap;html=1;fontFamily=Helvetica;fontSize=13;labelBackgroundColor=none;fillColor=#dae8fc;strokeColor=#6c8ebf;strokeWidth=2;" vertex="1" parent="1">
          <mxGeometry x="-160" y="-60" width="120" height="80" as="geometry" />
        </mxCell>
        <mxCell id="BkbEZWv4PE-Ta2i0Lm6m-37" style="edgeStyle=orthogonalEdgeStyle;curved=1;rounded=0;orthogonalLoop=1;jettySize=auto;html=1;entryX=0;entryY=0;entryDx=0;entryDy=0;strokeColor=default;strokeWidth=3;align=center;verticalAlign=middle;fontFamily=Helvetica;fontSize=11;fontColor=default;labelBackgroundColor=default;endArrow=classic;" edge="1" parent="1" source="BkbEZWv4PE-Ta2i0Lm6m-29" target="BkbEZWv4PE-Ta2i0Lm6m-6">
          <mxGeometry relative="1" as="geometry" />
        </mxCell>
        <mxCell id="BkbEZWv4PE-Ta2i0Lm6m-29" value="&lt;font style=&quot;font-size: 16px;&quot;&gt;phone number&lt;/font&gt;" style="ellipse;whiteSpace=wrap;html=1;fontFamily=Helvetica;fontSize=13;labelBackgroundColor=none;fillColor=#dae8fc;strokeColor=#6c8ebf;strokeWidth=2;" vertex="1" parent="1">
          <mxGeometry x="-160" y="50" width="120" height="80" as="geometry" />
        </mxCell>
        <mxCell id="BkbEZWv4PE-Ta2i0Lm6m-36" style="edgeStyle=orthogonalEdgeStyle;curved=1;rounded=0;orthogonalLoop=1;jettySize=auto;html=1;entryX=0;entryY=0;entryDx=0;entryDy=0;strokeColor=default;strokeWidth=3;align=center;verticalAlign=middle;fontFamily=Helvetica;fontSize=11;fontColor=default;labelBackgroundColor=default;endArrow=classic;" edge="1" parent="1" source="BkbEZWv4PE-Ta2i0Lm6m-30" target="BkbEZWv4PE-Ta2i0Lm6m-6">
          <mxGeometry relative="1" as="geometry" />
        </mxCell>
        <mxCell id="BkbEZWv4PE-Ta2i0Lm6m-30" value="&lt;font style=&quot;font-size: 16px;&quot;&gt;add to mailing list?&lt;/font&gt;" style="ellipse;whiteSpace=wrap;html=1;fontFamily=Helvetica;fontSize=13;labelBackgroundColor=none;fillColor=#dae8fc;strokeColor=#6c8ebf;strokeWidth=2;" vertex="1" parent="1">
          <mxGeometry x="-160" y="160" width="120" height="80" as="geometry" />
        </mxCell>
        <mxCell id="BkbEZWv4PE-Ta2i0Lm6m-34" style="edgeStyle=orthogonalEdgeStyle;curved=1;rounded=0;orthogonalLoop=1;jettySize=auto;html=1;entryX=0;entryY=0;entryDx=0;entryDy=0;strokeColor=default;strokeWidth=3;align=center;verticalAlign=middle;fontFamily=Helvetica;fontSize=11;fontColor=default;labelBackgroundColor=default;endArrow=classic;" edge="1" parent="1" source="BkbEZWv4PE-Ta2i0Lm6m-31" target="BkbEZWv4PE-Ta2i0Lm6m-6">
          <mxGeometry relative="1" as="geometry" />
        </mxCell>
        <mxCell id="BkbEZWv4PE-Ta2i0Lm6m-31" value="&lt;font style=&quot;font-size: 16px;&quot;&gt;first name&lt;/font&gt;" style="ellipse;whiteSpace=wrap;html=1;fontFamily=Helvetica;fontSize=13;labelBackgroundColor=none;fillColor=#dae8fc;strokeColor=#6c8ebf;strokeWidth=2;" vertex="1" parent="1">
          <mxGeometry x="-170" y="-290" width="120" height="80" as="geometry" />
        </mxCell>
        <mxCell id="BkbEZWv4PE-Ta2i0Lm6m-56" style="edgeStyle=orthogonalEdgeStyle;curved=1;rounded=0;orthogonalLoop=1;jettySize=auto;html=1;strokeColor=default;strokeWidth=3;align=center;verticalAlign=middle;fontFamily=Helvetica;fontSize=11;fontColor=default;labelBackgroundColor=default;endArrow=classic;exitX=0;exitY=0.5;exitDx=0;exitDy=0;" edge="1" parent="1" source="BkbEZWv4PE-Ta2i0Lm6m-46" target="BkbEZWv4PE-Ta2i0Lm6m-1">
          <mxGeometry relative="1" as="geometry" />
        </mxCell>
        <mxCell id="BkbEZWv4PE-Ta2i0Lm6m-46" value="&lt;font style=&quot;font-size: 16px;&quot;&gt;pre order&lt;/font&gt;" style="ellipse;whiteSpace=wrap;html=1;fontFamily=Helvetica;fontSize=13;labelBackgroundColor=none;fillColor=#dae8fc;strokeColor=#6c8ebf;strokeWidth=2;" vertex="1" parent="1">
          <mxGeometry x="875" y="90" width="120" height="80" as="geometry" />
        </mxCell>
        <mxCell id="BkbEZWv4PE-Ta2i0Lm6m-55" style="edgeStyle=orthogonalEdgeStyle;curved=1;rounded=0;orthogonalLoop=1;jettySize=auto;html=1;strokeColor=default;strokeWidth=3;align=center;verticalAlign=middle;fontFamily=Helvetica;fontSize=11;fontColor=default;labelBackgroundColor=default;endArrow=classic;exitX=0;exitY=0.5;exitDx=0;exitDy=0;" edge="1" parent="1" source="BkbEZWv4PE-Ta2i0Lm6m-47" target="BkbEZWv4PE-Ta2i0Lm6m-1">
          <mxGeometry relative="1" as="geometry" />
        </mxCell>
        <mxCell id="BkbEZWv4PE-Ta2i0Lm6m-47" value="&lt;font style=&quot;font-size: 16px;&quot;&gt;customers id&lt;/font&gt;" style="ellipse;whiteSpace=wrap;html=1;fontFamily=Helvetica;fontSize=13;labelBackgroundColor=none;fillColor=#dae8fc;strokeColor=#6c8ebf;strokeWidth=2;" vertex="1" parent="1">
          <mxGeometry x="875" y="-30" width="120" height="80" as="geometry" />
        </mxCell>
        <mxCell id="BkbEZWv4PE-Ta2i0Lm6m-57" style="edgeStyle=orthogonalEdgeStyle;curved=1;rounded=0;orthogonalLoop=1;jettySize=auto;html=1;strokeColor=default;strokeWidth=3;align=center;verticalAlign=middle;fontFamily=Helvetica;fontSize=11;fontColor=default;labelBackgroundColor=default;endArrow=classic;exitX=0;exitY=0.5;exitDx=0;exitDy=0;" edge="1" parent="1" source="BkbEZWv4PE-Ta2i0Lm6m-48" target="BkbEZWv4PE-Ta2i0Lm6m-1">
          <mxGeometry relative="1" as="geometry" />
        </mxCell>
        <mxCell id="BkbEZWv4PE-Ta2i0Lm6m-48" value="&lt;font style=&quot;font-size: 16px;&quot;&gt;pickup date&lt;/font&gt;" style="ellipse;whiteSpace=wrap;html=1;fontFamily=Helvetica;fontSize=13;labelBackgroundColor=none;fillColor=#dae8fc;strokeColor=#6c8ebf;strokeWidth=2;" vertex="1" parent="1">
          <mxGeometry x="875" y="200" width="120" height="80" as="geometry" />
        </mxCell>
        <mxCell id="BkbEZWv4PE-Ta2i0Lm6m-53" style="edgeStyle=orthogonalEdgeStyle;curved=1;rounded=0;orthogonalLoop=1;jettySize=auto;html=1;strokeColor=default;strokeWidth=3;align=center;verticalAlign=middle;fontFamily=Helvetica;fontSize=11;fontColor=default;labelBackgroundColor=default;endArrow=classic;exitX=1;exitY=0.5;exitDx=0;exitDy=0;" edge="1" parent="1" source="BkbEZWv4PE-Ta2i0Lm6m-49" target="BkbEZWv4PE-Ta2i0Lm6m-1">
          <mxGeometry relative="1" as="geometry" />
        </mxCell>
        <mxCell id="BkbEZWv4PE-Ta2i0Lm6m-49" value="&lt;font style=&quot;font-size: 16px;&quot;&gt;paid&lt;/font&gt;" style="ellipse;whiteSpace=wrap;html=1;fontFamily=Helvetica;fontSize=13;labelBackgroundColor=none;fillColor=#dae8fc;strokeColor=#6c8ebf;strokeWidth=2;" vertex="1" parent="1">
          <mxGeometry x="575" y="40" width="120" height="80" as="geometry" />
        </mxCell>
        <mxCell id="BkbEZWv4PE-Ta2i0Lm6m-54" style="edgeStyle=orthogonalEdgeStyle;curved=1;rounded=0;orthogonalLoop=1;jettySize=auto;html=1;strokeColor=default;strokeWidth=3;align=center;verticalAlign=middle;fontFamily=Helvetica;fontSize=11;fontColor=default;labelBackgroundColor=default;endArrow=classic;exitX=1;exitY=0.5;exitDx=0;exitDy=0;" edge="1" parent="1" source="BkbEZWv4PE-Ta2i0Lm6m-50" target="BkbEZWv4PE-Ta2i0Lm6m-1">
          <mxGeometry relative="1" as="geometry" />
        </mxCell>
        <mxCell id="BkbEZWv4PE-Ta2i0Lm6m-50" value="&lt;font style=&quot;font-size: 16px;&quot;&gt;notes&lt;/font&gt;" style="ellipse;whiteSpace=wrap;html=1;fontFamily=Helvetica;fontSize=13;labelBackgroundColor=none;fillColor=#dae8fc;strokeColor=#6c8ebf;strokeWidth=2;" vertex="1" parent="1">
          <mxGeometry x="575" y="150" width="120" height="80" as="geometry" />
        </mxCell>
        <mxCell id="BkbEZWv4PE-Ta2i0Lm6m-52" style="edgeStyle=orthogonalEdgeStyle;curved=1;rounded=0;orthogonalLoop=1;jettySize=auto;html=1;entryX=0.5;entryY=0;entryDx=0;entryDy=0;strokeColor=default;strokeWidth=3;align=center;verticalAlign=middle;fontFamily=Helvetica;fontSize=11;fontColor=default;labelBackgroundColor=default;endArrow=classic;exitX=1;exitY=0.5;exitDx=0;exitDy=0;" edge="1" parent="1" source="BkbEZWv4PE-Ta2i0Lm6m-51" target="BkbEZWv4PE-Ta2i0Lm6m-1">
          <mxGeometry relative="1" as="geometry" />
        </mxCell>
        <mxCell id="BkbEZWv4PE-Ta2i0Lm6m-51" value="&lt;font style=&quot;font-size: 16px;&quot;&gt;ID&lt;/font&gt;" style="ellipse;whiteSpace=wrap;html=1;fontFamily=Helvetica;fontSize=13;labelBackgroundColor=none;fillColor=#dae8fc;strokeColor=#6c8ebf;strokeWidth=2;" vertex="1" parent="1">
          <mxGeometry x="565" y="-80" width="120" height="80" as="geometry" />
        </mxCell>
        <mxCell id="BkbEZWv4PE-Ta2i0Lm6m-65" style="edgeStyle=orthogonalEdgeStyle;curved=1;rounded=0;orthogonalLoop=1;jettySize=auto;html=1;entryX=1;entryY=0.5;entryDx=0;entryDy=0;strokeColor=default;strokeWidth=3;align=center;verticalAlign=middle;fontFamily=Helvetica;fontSize=11;fontColor=default;labelBackgroundColor=default;endArrow=classic;" edge="1" parent="1" source="BkbEZWv4PE-Ta2i0Lm6m-58" target="BkbEZWv4PE-Ta2i0Lm6m-5">
          <mxGeometry relative="1" as="geometry" />
        </mxCell>
        <mxCell id="BkbEZWv4PE-Ta2i0Lm6m-58" value="&lt;font style=&quot;font-size: 16px;&quot;&gt;menu item id&lt;/font&gt;" style="ellipse;whiteSpace=wrap;html=1;fontFamily=Helvetica;fontSize=13;labelBackgroundColor=none;fillColor=#dae8fc;strokeColor=#6c8ebf;strokeWidth=2;" vertex="1" parent="1">
          <mxGeometry x="1400" y="400" width="120" height="80" as="geometry" />
        </mxCell>
        <mxCell id="BkbEZWv4PE-Ta2i0Lm6m-66" style="edgeStyle=orthogonalEdgeStyle;curved=1;rounded=0;orthogonalLoop=1;jettySize=auto;html=1;entryX=1;entryY=1;entryDx=0;entryDy=0;strokeColor=default;strokeWidth=3;align=center;verticalAlign=middle;fontFamily=Helvetica;fontSize=11;fontColor=default;labelBackgroundColor=default;endArrow=classic;" edge="1" parent="1" source="BkbEZWv4PE-Ta2i0Lm6m-59" target="BkbEZWv4PE-Ta2i0Lm6m-5">
          <mxGeometry relative="1" as="geometry" />
        </mxCell>
        <mxCell id="BkbEZWv4PE-Ta2i0Lm6m-59" value="&lt;font style=&quot;font-size: 16px;&quot;&gt;quantity&lt;/font&gt;" style="ellipse;whiteSpace=wrap;html=1;fontFamily=Helvetica;fontSize=13;labelBackgroundColor=none;fillColor=#dae8fc;strokeColor=#6c8ebf;strokeWidth=2;" vertex="1" parent="1">
          <mxGeometry x="1340" y="510" width="120" height="80" as="geometry" />
        </mxCell>
        <mxCell id="BkbEZWv4PE-Ta2i0Lm6m-64" style="edgeStyle=orthogonalEdgeStyle;curved=1;rounded=0;orthogonalLoop=1;jettySize=auto;html=1;entryX=1;entryY=0;entryDx=0;entryDy=0;strokeColor=default;strokeWidth=3;align=center;verticalAlign=middle;fontFamily=Helvetica;fontSize=11;fontColor=default;labelBackgroundColor=default;endArrow=classic;" edge="1" parent="1" source="BkbEZWv4PE-Ta2i0Lm6m-60" target="BkbEZWv4PE-Ta2i0Lm6m-5">
          <mxGeometry relative="1" as="geometry" />
        </mxCell>
        <mxCell id="BkbEZWv4PE-Ta2i0Lm6m-60" value="&lt;font style=&quot;font-size: 16px;&quot;&gt;order id&lt;/font&gt;" style="ellipse;whiteSpace=wrap;html=1;fontFamily=Helvetica;fontSize=13;labelBackgroundColor=none;fillColor=#dae8fc;strokeColor=#6c8ebf;strokeWidth=2;" vertex="1" parent="1">
          <mxGeometry x="1360" y="280" width="120" height="80" as="geometry" />
        </mxCell>
        <mxCell id="BkbEZWv4PE-Ta2i0Lm6m-63" style="edgeStyle=orthogonalEdgeStyle;curved=1;rounded=0;orthogonalLoop=1;jettySize=auto;html=1;strokeColor=default;strokeWidth=3;align=center;verticalAlign=middle;fontFamily=Helvetica;fontSize=11;fontColor=default;labelBackgroundColor=default;endArrow=classic;" edge="1" parent="1" source="BkbEZWv4PE-Ta2i0Lm6m-61" target="BkbEZWv4PE-Ta2i0Lm6m-5">
          <mxGeometry relative="1" as="geometry" />
        </mxCell>
        <mxCell id="BkbEZWv4PE-Ta2i0Lm6m-61" value="&lt;font style=&quot;font-size: 16px;&quot;&gt;ID&lt;/font&gt;" style="ellipse;whiteSpace=wrap;html=1;fontFamily=Helvetica;fontSize=13;labelBackgroundColor=none;fillColor=#dae8fc;strokeColor=#6c8ebf;strokeWidth=2;" vertex="1" parent="1">
          <mxGeometry x="1250" y="180" width="120" height="80" as="geometry" />
        </mxCell>
        <mxCell id="BkbEZWv4PE-Ta2i0Lm6m-81" style="edgeStyle=orthogonalEdgeStyle;curved=1;rounded=0;orthogonalLoop=1;jettySize=auto;html=1;entryX=0.5;entryY=0;entryDx=0;entryDy=0;strokeColor=default;strokeWidth=3;align=center;verticalAlign=middle;fontFamily=Helvetica;fontSize=11;fontColor=default;labelBackgroundColor=default;endArrow=classic;" edge="1" parent="1" source="BkbEZWv4PE-Ta2i0Lm6m-82" target="BkbEZWv4PE-Ta2i0Lm6m-4">
          <mxGeometry relative="1" as="geometry">
            <mxPoint x="920" y="830" as="targetPoint" />
          </mxGeometry>
        </mxCell>
        <mxCell id="BkbEZWv4PE-Ta2i0Lm6m-82" value="&lt;font style=&quot;font-size: 16px;&quot;&gt;product name&lt;/font&gt;" style="ellipse;whiteSpace=wrap;html=1;fontFamily=Helvetica;fontSize=13;labelBackgroundColor=none;fillColor=#dae8fc;strokeColor=#6c8ebf;strokeWidth=2;" vertex="1" parent="1">
          <mxGeometry x="770" y="570" width="120" height="80" as="geometry" />
        </mxCell>
        <mxCell id="BkbEZWv4PE-Ta2i0Lm6m-83" style="edgeStyle=orthogonalEdgeStyle;curved=1;rounded=0;orthogonalLoop=1;jettySize=auto;html=1;entryX=1;entryY=0;entryDx=0;entryDy=0;strokeColor=default;strokeWidth=3;align=center;verticalAlign=middle;fontFamily=Helvetica;fontSize=11;fontColor=default;labelBackgroundColor=default;endArrow=classic;" edge="1" parent="1" source="BkbEZWv4PE-Ta2i0Lm6m-84" target="BkbEZWv4PE-Ta2i0Lm6m-4">
          <mxGeometry relative="1" as="geometry">
            <mxPoint x="888" y="879" as="targetPoint" />
          </mxGeometry>
        </mxCell>
        <mxCell id="BkbEZWv4PE-Ta2i0Lm6m-84" value="&lt;font style=&quot;font-size: 16px;&quot;&gt;description&lt;/font&gt;" style="ellipse;whiteSpace=wrap;html=1;fontFamily=Helvetica;fontSize=13;labelBackgroundColor=none;fillColor=#dae8fc;strokeColor=#6c8ebf;strokeWidth=2;" vertex="1" parent="1">
          <mxGeometry x="900" y="660" width="120" height="80" as="geometry" />
        </mxCell>
        <mxCell id="BkbEZWv4PE-Ta2i0Lm6m-85" style="edgeStyle=orthogonalEdgeStyle;curved=1;rounded=0;orthogonalLoop=1;jettySize=auto;html=1;entryX=0.5;entryY=0;entryDx=0;entryDy=0;strokeColor=default;strokeWidth=3;align=center;verticalAlign=middle;fontFamily=Helvetica;fontSize=11;fontColor=default;labelBackgroundColor=default;endArrow=classic;" edge="1" parent="1" source="BkbEZWv4PE-Ta2i0Lm6m-86" target="BkbEZWv4PE-Ta2i0Lm6m-4">
          <mxGeometry relative="1" as="geometry">
            <mxPoint x="888" y="781" as="targetPoint" />
          </mxGeometry>
        </mxCell>
        <mxCell id="BkbEZWv4PE-Ta2i0Lm6m-86" value="&lt;font style=&quot;font-size: 16px;&quot;&gt;product id&lt;/font&gt;" style="ellipse;whiteSpace=wrap;html=1;fontFamily=Helvetica;fontSize=13;labelBackgroundColor=none;fillColor=#dae8fc;strokeColor=#6c8ebf;strokeWidth=2;" vertex="1" parent="1">
          <mxGeometry x="620" y="600" width="120" height="80" as="geometry" />
        </mxCell>
        <mxCell id="BkbEZWv4PE-Ta2i0Lm6m-87" style="edgeStyle=orthogonalEdgeStyle;curved=1;rounded=0;orthogonalLoop=1;jettySize=auto;html=1;strokeColor=default;strokeWidth=3;align=center;verticalAlign=middle;fontFamily=Helvetica;fontSize=11;fontColor=default;labelBackgroundColor=default;endArrow=classic;entryX=0;entryY=0;entryDx=0;entryDy=0;" edge="1" parent="1" source="BkbEZWv4PE-Ta2i0Lm6m-88" target="BkbEZWv4PE-Ta2i0Lm6m-4">
          <mxGeometry relative="1" as="geometry">
            <mxPoint x="810" y="760" as="targetPoint" />
          </mxGeometry>
        </mxCell>
        <mxCell id="BkbEZWv4PE-Ta2i0Lm6m-88" value="&lt;font style=&quot;font-size: 16px;&quot;&gt;ID&lt;/font&gt;" style="ellipse;whiteSpace=wrap;html=1;fontFamily=Helvetica;fontSize=13;labelBackgroundColor=none;fillColor=#dae8fc;strokeColor=#6c8ebf;strokeWidth=2;" vertex="1" parent="1">
          <mxGeometry x="525" y="680" width="120" height="80" as="geometry" />
        </mxCell>
        <mxCell id="BkbEZWv4PE-Ta2i0Lm6m-91" style="edgeStyle=orthogonalEdgeStyle;curved=1;rounded=0;orthogonalLoop=1;jettySize=auto;html=1;entryX=0.5;entryY=1;entryDx=0;entryDy=0;strokeColor=default;strokeWidth=3;align=center;verticalAlign=middle;fontFamily=Helvetica;fontSize=11;fontColor=default;labelBackgroundColor=default;endArrow=classic;" edge="1" parent="1" source="BkbEZWv4PE-Ta2i0Lm6m-92" target="BkbEZWv4PE-Ta2i0Lm6m-2">
          <mxGeometry relative="1" as="geometry">
            <mxPoint x="798" y="1089" as="targetPoint" />
          </mxGeometry>
        </mxCell>
        <mxCell id="BkbEZWv4PE-Ta2i0Lm6m-92" value="&lt;font style=&quot;font-size: 16px;&quot;&gt;ID&lt;/font&gt;" style="ellipse;whiteSpace=wrap;html=1;fontFamily=Helvetica;fontSize=13;labelBackgroundColor=none;fillColor=#dae8fc;strokeColor=#6c8ebf;strokeWidth=2;" vertex="1" parent="1">
          <mxGeometry x="1040" y="1110" width="120" height="80" as="geometry" />
        </mxCell>
        <mxCell id="BkbEZWv4PE-Ta2i0Lm6m-98" style="edgeStyle=orthogonalEdgeStyle;curved=1;rounded=0;orthogonalLoop=1;jettySize=auto;html=1;entryX=1;entryY=1;entryDx=0;entryDy=0;strokeColor=default;strokeWidth=3;align=center;verticalAlign=middle;fontFamily=Helvetica;fontSize=11;fontColor=default;labelBackgroundColor=default;endArrow=classic;" edge="1" parent="1" source="BkbEZWv4PE-Ta2i0Lm6m-94" target="BkbEZWv4PE-Ta2i0Lm6m-2">
          <mxGeometry relative="1" as="geometry" />
        </mxCell>
        <mxCell id="BkbEZWv4PE-Ta2i0Lm6m-94" value="&lt;font style=&quot;font-size: 16px;&quot;&gt;sales unit val&lt;/font&gt;" style="ellipse;whiteSpace=wrap;html=1;fontFamily=Helvetica;fontSize=13;labelBackgroundColor=none;fillColor=#dae8fc;strokeColor=#6c8ebf;strokeWidth=2;" vertex="1" parent="1">
          <mxGeometry x="1370" y="1110" width="120" height="80" as="geometry" />
        </mxCell>
        <mxCell id="BkbEZWv4PE-Ta2i0Lm6m-95" style="edgeStyle=orthogonalEdgeStyle;curved=1;rounded=0;orthogonalLoop=1;jettySize=auto;html=1;strokeColor=default;strokeWidth=3;align=center;verticalAlign=middle;fontFamily=Helvetica;fontSize=11;fontColor=default;labelBackgroundColor=default;endArrow=classic;entryX=1;entryY=1;entryDx=0;entryDy=0;" edge="1" parent="1" source="BkbEZWv4PE-Ta2i0Lm6m-96" target="BkbEZWv4PE-Ta2i0Lm6m-2">
          <mxGeometry relative="1" as="geometry">
            <mxPoint x="720" y="970" as="targetPoint" />
          </mxGeometry>
        </mxCell>
        <mxCell id="BkbEZWv4PE-Ta2i0Lm6m-96" value="&lt;font style=&quot;font-size: 16px;&quot;&gt;product name&lt;/font&gt;" style="ellipse;whiteSpace=wrap;html=1;fontFamily=Helvetica;fontSize=13;labelBackgroundColor=none;fillColor=#dae8fc;strokeColor=#6c8ebf;strokeWidth=2;" vertex="1" parent="1">
          <mxGeometry x="1170" y="1140" width="120" height="80" as="geometry" />
        </mxCell>
        <mxCell id="BkbEZWv4PE-Ta2i0Lm6m-99" style="edgeStyle=orthogonalEdgeStyle;curved=1;rounded=0;orthogonalLoop=1;jettySize=auto;html=1;entryX=1;entryY=1;entryDx=0;entryDy=0;strokeColor=default;strokeWidth=3;align=center;verticalAlign=middle;fontFamily=Helvetica;fontSize=11;fontColor=default;labelBackgroundColor=default;endArrow=classic;" edge="1" parent="1" source="BkbEZWv4PE-Ta2i0Lm6m-100" target="BkbEZWv4PE-Ta2i0Lm6m-3">
          <mxGeometry relative="1" as="geometry">
            <mxPoint x="-73" y="880" as="targetPoint" />
          </mxGeometry>
        </mxCell>
        <mxCell id="BkbEZWv4PE-Ta2i0Lm6m-100" value="&lt;font style=&quot;font-size: 16px;&quot;&gt;description&lt;/font&gt;" style="ellipse;whiteSpace=wrap;html=1;fontFamily=Helvetica;fontSize=13;labelBackgroundColor=none;fillColor=#dae8fc;strokeColor=#6c8ebf;strokeWidth=2;" vertex="1" parent="1">
          <mxGeometry x="490" y="910" width="120" height="80" as="geometry" />
        </mxCell>
        <mxCell id="BkbEZWv4PE-Ta2i0Lm6m-101" style="edgeStyle=orthogonalEdgeStyle;curved=1;rounded=0;orthogonalLoop=1;jettySize=auto;html=1;entryX=0.5;entryY=1;entryDx=0;entryDy=0;strokeColor=default;strokeWidth=3;align=center;verticalAlign=middle;fontFamily=Helvetica;fontSize=11;fontColor=default;labelBackgroundColor=default;endArrow=classic;" edge="1" parent="1" source="BkbEZWv4PE-Ta2i0Lm6m-102" target="BkbEZWv4PE-Ta2i0Lm6m-3">
          <mxGeometry relative="1" as="geometry">
            <mxPoint x="5" y="901" as="targetPoint" />
          </mxGeometry>
        </mxCell>
        <mxCell id="BkbEZWv4PE-Ta2i0Lm6m-102" value="&lt;font style=&quot;font-size: 16px;&quot;&gt;product name&lt;/font&gt;" style="ellipse;whiteSpace=wrap;html=1;fontFamily=Helvetica;fontSize=13;labelBackgroundColor=none;fillColor=#dae8fc;strokeColor=#6c8ebf;strokeWidth=2;" vertex="1" parent="1">
          <mxGeometry x="365" y="940" width="120" height="80" as="geometry" />
        </mxCell>
        <mxCell id="BkbEZWv4PE-Ta2i0Lm6m-103" style="edgeStyle=orthogonalEdgeStyle;curved=1;rounded=0;orthogonalLoop=1;jettySize=auto;html=1;entryX=0.5;entryY=1;entryDx=0;entryDy=0;strokeColor=default;strokeWidth=3;align=center;verticalAlign=middle;fontFamily=Helvetica;fontSize=11;fontColor=default;labelBackgroundColor=default;endArrow=classic;" edge="1" parent="1" source="BkbEZWv4PE-Ta2i0Lm6m-104" target="BkbEZWv4PE-Ta2i0Lm6m-3">
          <mxGeometry relative="1" as="geometry">
            <mxPoint x="83" y="880" as="targetPoint" />
          </mxGeometry>
        </mxCell>
        <mxCell id="BkbEZWv4PE-Ta2i0Lm6m-104" value="&lt;font style=&quot;font-size: 16px;&quot;&gt;category id&lt;/font&gt;" style="ellipse;whiteSpace=wrap;html=1;fontFamily=Helvetica;fontSize=13;labelBackgroundColor=none;fillColor=#dae8fc;strokeColor=#6c8ebf;strokeWidth=2;" vertex="1" parent="1">
          <mxGeometry x="230" y="940" width="120" height="80" as="geometry" />
        </mxCell>
        <mxCell id="BkbEZWv4PE-Ta2i0Lm6m-105" style="edgeStyle=orthogonalEdgeStyle;curved=1;rounded=0;orthogonalLoop=1;jettySize=auto;html=1;strokeColor=default;strokeWidth=3;align=center;verticalAlign=middle;fontFamily=Helvetica;fontSize=11;fontColor=default;labelBackgroundColor=default;endArrow=classic;entryX=0;entryY=1;entryDx=0;entryDy=0;" edge="1" parent="1" source="BkbEZWv4PE-Ta2i0Lm6m-106" target="BkbEZWv4PE-Ta2i0Lm6m-3">
          <mxGeometry relative="1" as="geometry">
            <mxPoint x="83" y="880" as="targetPoint" />
          </mxGeometry>
        </mxCell>
        <mxCell id="BkbEZWv4PE-Ta2i0Lm6m-106" value="&lt;font style=&quot;font-size: 16px;&quot;&gt;ID&lt;/font&gt;" style="ellipse;whiteSpace=wrap;html=1;fontFamily=Helvetica;fontSize=13;labelBackgroundColor=none;fillColor=#dae8fc;strokeColor=#6c8ebf;strokeWidth=2;" vertex="1" parent="1">
          <mxGeometry x="90" y="871" width="120" height="80" as="geometry" />
        </mxCell>
      </root>
    </mxGraphModel>
  </diagram>
</mxfile>
